<svg xmlns="http://www.w3.org/2000/svg" width="46" height="71"><defs><clipPath id="a"><path fill="#fff" d="M23 0c12.702 0 23 10.297 23 23v25c0 12.702-10.298 23-23 23C10.297 71 0 60.702 0 48V23C0 10.297 10.297 0 23 0z"/></clipPath></defs><path fill="#fff" d="M23 0c12.702 0 23 10.297 23 23v25c0 12.702-10.298 23-23 23C10.297 71 0 60.702 0 48V23C0 10.297 10.297 0 23 0z"/><path fill="none" stroke="#fff" stroke-linecap="round" stroke-linejoin="round" stroke-miterlimit="50" stroke-width="6" d="M23 0c12.702 0 23 10.297 23 23v25c0 12.702-10.298 23-23 23C10.297 71 0 60.702 0 48V23C0 10.297 10.297 0 23 0z" clip-path="url(&quot;#a&quot;)"/><path fill="#fff" d="M23 12.812a3.188 3.188 0 1 1 0 6.375 3.188 3.188 0 0 1 0-6.375zm0 12a3.187 3.187 0 1 1 0 6.375 3.187 3.187 0 0 1 0-6.375zm0 12a3.187 3.187 0 1 1 0 6.375 3.187 3.187 0 0 1 0-6.375zm-9.997 10.182l9.497 8.12 9.497-8.12v3.888L22.5 59.004l-9.497-8.122z"/></svg>