<svg xmlns="http://www.w3.org/2000/svg" width="59" height="84"><path stroke-width="3" stroke="#FFF" fill="none" d="M29.5 6.5c12.702 0 23 10.297 23 23v25c0 12.702-10.298 23-23 23-12.703 0-23-10.298-23-23v-25c0-12.703 10.297-23 23-23z"/><path fill-rule="evenodd" fill="#FFF" d="M29.5 19.312a3.187 3.187 0 1 1 0 6.375 3.187 3.187 0 0 1 0-6.375zm0 12a3.187 3.187 0 1 1 0 6.375 3.187 3.187 0 0 1 0-6.375zm0 12a3.187 3.187 0 1 1 0 6.375 3.187 3.187 0 0 1 0-6.375zm-9.997 10.182L29 61.615l9.497-8.121v3.888L29 65.504l-9.497-8.122v-3.888z"/></svg>