<svg 
 xmlns="http://www.w3.org/2000/svg"
 xmlns:xlink="http://www.w3.org/1999/xlink"
 width="59px" height="84px">
<path fill-rule="evenodd"  stroke-width="3px" stroke="rgb(255, 255, 255)" fill-opacity="0" fill="rgb(255, 255, 255)"
 d="M29.500,6.500 C42.202,6.500 52.500,16.797 52.500,29.500 L52.500,54.500 C52.500,67.202 42.202,77.500 29.500,77.500 C16.797,77.500 6.500,67.202 6.500,54.500 L6.500,29.500 C6.500,16.797 16.797,6.500 29.500,6.500 Z"/>
<path fill-rule="evenodd"  fill="rgb(255, 255, 255)"
 d="M29.500,19.312 C31.260,19.312 32.687,20.739 32.687,22.500 C32.687,24.260 31.260,25.687 29.500,25.687 C27.740,25.687 26.312,24.260 26.312,22.500 C26.312,20.739 27.740,19.312 29.500,19.312 Z"/>
<path fill-rule="evenodd"  fill="rgb(255, 255, 255)"
 d="M29.500,31.312 C31.260,31.312 32.687,32.739 32.687,34.500 C32.687,36.260 31.260,37.687 29.500,37.687 C27.740,37.687 26.312,36.260 26.312,34.500 C26.312,32.739 27.740,31.312 29.500,31.312 Z"/>
<path fill-rule="evenodd"  fill="rgb(255, 255, 255)"
 d="M29.500,43.312 C31.260,43.312 32.687,44.739 32.687,46.500 C32.687,48.260 31.260,49.687 29.500,49.687 C27.740,49.687 26.312,48.260 26.312,46.500 C26.312,44.739 27.740,43.312 29.500,43.312 Z"/>
<path fill-rule="evenodd"  fill="rgb(255, 255, 255)"
 d="M19.503,53.494 L29.000,61.615 L38.497,53.494 L38.497,57.382 L29.000,65.504 L19.503,57.382 L19.503,53.494 Z"/>
</svg>